RobotoSerifText-Light.ufo
<glyph name="ampersand" format="1">
  <advance width="718"/>
  <unicode hex="0026"/>
  <outline>
    <contour>
      <point x="603" y="319" type="curve" smooth="yes"/>
      <point x="609" y="352"/>
      <point x="637" y="357"/>
      <point x="681" y="357" type="curve" smooth="yes"/>
      <point x="683" y="357" type="line"/>
      <point x="683" y="394" type="line"/>
      <point x="482" y="394" type="line"/>
      <point x="482" y="357" type="line"/>
      <point x="484" y="357" type="line" smooth="yes"/>
      <point x="512" y="357"/>
      <point x="557" y="354"/>
      <point x="557" y="347" type="curve" smooth="yes"/>
      <point x="557" y="231"/>
      <point x="470" y="32"/>
      <point x="299" y="32" type="curve" smooth="yes"/>
      <point x="182" y="32"/>
      <point x="123" y="100"/>
      <point x="123" y="201" type="curve" smooth="yes"/>
      <point x="123" y="299"/>
      <point x="181" y="350"/>
      <point x="272" y="384" type="curve"/>
      <point x="259" y="417" type="line"/>
      <point x="143" y="384"/>
      <point x="56" y="312"/>
      <point x="56" y="198" type="curve" smooth="yes"/>
      <point x="56" y="74"/>
      <point x="146" y="-10"/>
      <point x="293" y="-10" type="curve" smooth="yes"/>
      <point x="504" y="-10"/>
      <point x="583" y="222"/>
    </contour>
    <contour>
      <point x="691" y="0" type="line"/>
      <point x="691" y="43" type="line"/>
      <point x="665" y="43" type="line" smooth="yes"/>
      <point x="621" y="43"/>
      <point x="602" y="59"/>
      <point x="571" y="87" type="curve" smooth="yes"/>
      <point x="344" y="292"/>
      <point x="259" y="425"/>
      <point x="259" y="551" type="curve" smooth="yes"/>
      <point x="259" y="637"/>
      <point x="303" y="676"/>
      <point x="364" y="676" type="curve" smooth="yes"/>
      <point x="420" y="676"/>
      <point x="450" y="638"/>
      <point x="450" y="582" type="curve" smooth="yes"/>
      <point x="450" y="501"/>
      <point x="379" y="461"/>
      <point x="275" y="423" type="curve"/>
      <point x="293" y="390" type="line"/>
      <point x="405" y="428"/>
      <point x="508" y="487"/>
      <point x="508" y="586" type="curve" smooth="yes"/>
      <point x="508" y="665"/>
      <point x="456" y="718"/>
      <point x="364" y="718" type="curve" smooth="yes"/>
      <point x="266" y="718"/>
      <point x="196" y="655"/>
      <point x="196" y="552" type="curve" smooth="yes"/>
      <point x="196" y="381"/>
      <point x="362" y="192"/>
      <point x="577" y="0" type="curve"/>
    </contour>
  </outline>
</glyph>
<glyph name="asterisk" format="1">
  <advance width="395"/>
  <unicode hex="002A"/>
  <outline>
    <contour>
      <point x="60" y="421" type="curve"/>
      <point x="33" y="466" type="line"/>
      <point x="79" y="494"/>
      <point x="109" y="498"/>
      <point x="190" y="545" type="curve"/>
      <point x="205" y="521" type="line"/>
      <point x="124" y="473"/>
      <point x="106" y="449"/>
    </contour>
    <contour>
      <point x="190" y="521" type="line"/>
      <point x="109" y="569"/>
      <point x="80" y="572"/>
      <point x="33" y="600" type="curve"/>
      <point x="60" y="645" type="line"/>
      <point x="106" y="618"/>
      <point x="124" y="593"/>
      <point x="205" y="545" type="curve"/>
    </contour>
    <contour>
      <point x="171" y="356" type="line"/>
      <point x="171" y="411"/>
      <point x="183" y="440"/>
      <point x="183" y="533" type="curve"/>
      <point x="212" y="533" type="line"/>
      <point x="212" y="440"/>
      <point x="224" y="411"/>
      <point x="224" y="356" type="curve"/>
    </contour>
    <contour>
      <point x="183" y="533" type="line"/>
      <point x="183" y="627"/>
      <point x="171" y="656"/>
      <point x="171" y="710" type="curve"/>
      <point x="224" y="710" type="line"/>
      <point x="224" y="656"/>
      <point x="212" y="627"/>
      <point x="212" y="533" type="curve"/>
    </contour>
    <contour>
      <point x="336" y="421" type="line"/>
      <point x="289" y="449"/>
      <point x="272" y="473"/>
      <point x="191" y="521" type="curve"/>
      <point x="206" y="545" type="line"/>
      <point x="286" y="498"/>
      <point x="316" y="494"/>
      <point x="362" y="466" type="curve"/>
    </contour>
    <contour>
      <point x="206" y="521" type="curve"/>
      <point x="191" y="545" type="line"/>
      <point x="272" y="593"/>
      <point x="289" y="618"/>
      <point x="336" y="645" type="curve"/>
      <point x="362" y="600" type="line"/>
      <point x="316" y="572"/>
      <point x="286" y="569"/>
    </contour>
  </outline>
</glyph>
<glyph name="plus" format="1">
  <advance width="560"/>
  <unicode hex="002B"/>
  <outline>
    <contour>
      <point x="253" y="542" type="line"/>
      <point x="253" y="140" type="line"/>
      <point x="305" y="140" type="line"/>
      <point x="305" y="542" type="line"/>
    </contour>
    <contour>
      <point x="476" y="364" type="line"/>
      <point x="84" y="364" type="line"/>
      <point x="84" y="318" type="line"/>
      <point x="476" y="318" type="line"/>
    </contour>
  </outline>
</glyph>
<glyph name="comma" format="1">
  <advance width="244"/>
  <unicode hex="002C"/>
  <outline>
    <contour>
      <point x="95" y="-138" type="line"/>
      <point x="156" y="-90"/>
      <point x="184" y="-33"/>
      <point x="184" y="28" type="curve" smooth="yes"/>
      <point x="184" y="72"/>
      <point x="159" y="93"/>
      <point x="126" y="93" type="curve" smooth="yes"/>
      <point x="96" y="93"/>
      <point x="75" y="73"/>
      <point x="75" y="44" type="curve" smooth="yes"/>
      <point x="75" y="15"/>
      <point x="96" y="-5"/>
      <point x="129" y="-5" type="curve" smooth="yes"/>
      <point x="146" y="-5"/>
      <point x="158" y="0"/>
      <point x="164" y="14" type="curve"/>
      <point x="157" y="17"/>
      <point x="150" y="15"/>
      <point x="147" y="10" type="curve"/>
      <point x="146" y="-26"/>
      <point x="106" y="-77"/>
      <point x="50" y="-115" type="curve"/>
    </contour>
  </outline>
</glyph>
<glyph name="five" format="1">
  <advance width="560"/>
  <unicode hex="0035"/>
  <outline>
    <contour>
      <point x="274" y="-90" type="curve"/>
      <point x="152" y="-90"/>
      <point x="77" y="-26"/>
      <point x="41" y="53" type="curve"/>
      <point x="77" y="85" type="line"/>
      <point x="107" y="20"/>
      <point x="166" y="-46"/>
      <point x="274" y="-46" type="curve"/>
      <point x="381" y="-46"/>
      <point x="448" y="33"/>
      <point x="448" y="149" type="curve" smooth="yes"/>
      <point x="448" y="259"/>
      <point x="378" y="322"/>
      <point x="290" y="322" type="curve" smooth="yes"/>
      <point x="221" y="322"/>
      <point x="171" y="293"/>
      <point x="130" y="240" type="curve"/>
      <point x="90" y="240" type="line"/>
      <point x="90" y="609" type="line"/>
      <point x="472" y="609" type="line"/>
      <point x="456" y="553" type="line"/>
      <point x="117" y="553" type="line"/>
      <point x="137" y="589" type="line"/>
      <point x="137" y="271" type="line"/>
      <point x="134" y="261"/>
      <point x="121" y="252"/>
      <point x="116" y="269" type="curve"/>
      <point x="155" y="327"/>
      <point x="218" y="366"/>
      <point x="300" y="366" type="curve" smooth="yes"/>
      <point x="435" y="366"/>
      <point x="515" y="265"/>
      <point x="515" y="149" type="curve" smooth="yes"/>
      <point x="515" y="12"/>
      <point x="420" y="-90"/>
    </contour>
  </outline>
</glyph>
<glyph name="nine" format="1">
  <advance width="560"/>
  <unicode hex="0039"/>
  <outline>
    <contour>
      <point x="93" y="-49" type="line"/>
      <point x="312" y="-34"/>
      <point x="449" y="101"/>
      <point x="449" y="325" type="curve" smooth="yes"/>
      <point x="449" y="499"/>
      <point x="377" y="575"/>
      <point x="273" y="575" type="curve" smooth="yes"/>
      <point x="170" y="575"/>
      <point x="108" y="498"/>
      <point x="108" y="392" type="curve" smooth="yes"/>
      <point x="108" y="293"/>
      <point x="163" y="221"/>
      <point x="260" y="221" type="curve" smooth="yes"/>
      <point x="353" y="221"/>
      <point x="423" y="289"/>
      <point x="463" y="379" type="curve"/>
      <point x="474" y="343" type="line"/>
      <point x="442" y="257"/>
      <point x="359" y="177"/>
      <point x="252" y="177" type="curve" smooth="yes"/>
      <point x="129" y="177"/>
      <point x="41" y="263"/>
      <point x="41" y="392" type="curve" smooth="yes"/>
      <point x="41" y="520"/>
      <point x="137" y="619"/>
      <point x="273" y="619" type="curve" smooth="yes"/>
      <point x="412" y="619"/>
      <point x="516" y="518"/>
      <point x="516" y="325" type="curve" smooth="yes"/>
      <point x="516" y="93"/>
      <point x="359" y="-76"/>
      <point x="100" y="-93" type="curve"/>
    </contour>
  </outline>
</glyph>
<glyph name="at" format="1">
  <advance width="900"/>
  <unicode hex="0040"/>
  <outline>
    <contour>
      <point x="463" y="-112" type="curve" smooth="yes"/>
      <point x="245" y="-112"/>
      <point x="91" y="21"/>
      <point x="91" y="233" type="curve" smooth="yes"/>
      <point x="91" y="461"/>
      <point x="262" y="633"/>
      <point x="492" y="633" type="curve" smooth="yes"/>
      <point x="695" y="633"/>
      <point x="810" y="506"/>
      <point x="810" y="342" type="curve" smooth="yes"/>
      <point x="810" y="176"/>
      <point x="728" y="90"/>
      <point x="656" y="90" type="curve" smooth="yes"/>
      <point x="604" y="90"/>
      <point x="580" y="118"/>
      <point x="591" y="179" type="curve" smooth="yes"/>
      <point x="641" y="468" type="line"/>
      <point x="605" y="468" type="line"/>
      <point x="574" y="393" type="line"/>
      <point x="566" y="387" type="line"/>
      <point x="525" y="145" type="line"/>
      <point x="527" y="140"/>
      <point x="529" y="142"/>
      <point x="530" y="143" type="curve"/>
      <point x="535" y="93"/>
      <point x="576" y="54"/>
      <point x="647" y="54" type="curve" smooth="yes"/>
      <point x="750" y="54"/>
      <point x="854" y="159"/>
      <point x="854" y="342" type="curve" smooth="yes"/>
      <point x="854" y="532"/>
      <point x="713" y="673"/>
      <point x="492" y="673" type="curve" smooth="yes"/>
      <point x="240" y="673"/>
      <point x="47" y="487"/>
      <point x="47" y="233" type="curve" smooth="yes"/>
      <point x="47" y="-6"/>
      <point x="223" y="-153"/>
      <point x="463" y="-153" type="curve" smooth="yes"/>
      <point x="570" y="-153"/>
      <point x="667" y="-123"/>
      <point x="721" y="-94" type="curve"/>
      <point x="708" y="-55" type="line"/>
      <point x="652" y="-84"/>
      <point x="567" y="-112"/>
    </contour>
    <contour>
      <point x="410" y="49" type="curve" smooth="yes"/>
      <point x="481" y="49"/>
      <point x="518" y="102"/>
      <point x="575" y="182" type="curve"/>
      <point x="562" y="212" type="line"/>
      <point x="512" y="137"/>
      <point x="472" y="86"/>
      <point x="414" y="86" type="curve" smooth="yes"/>
      <point x="358" y="86"/>
      <point x="329" y="131"/>
      <point x="329" y="217" type="curve" smooth="yes"/>
      <point x="329" y="322"/>
      <point x="388" y="436"/>
      <point x="473" y="436" type="curve" smooth="yes"/>
      <point x="524" y="436"/>
      <point x="559" y="407"/>
      <point x="577" y="320" type="curve"/>
      <point x="598" y="355" type="line"/>
      <point x="579" y="441"/>
      <point x="536" y="474"/>
      <point x="473" y="474" type="curve" smooth="yes"/>
      <point x="346" y="474"/>
      <point x="267" y="347"/>
      <point x="267" y="222" type="curve" smooth="yes"/>
      <point x="267" y="111"/>
      <point x="326" y="49"/>
    </contour>
  </outline>
</glyph>
<glyph name="c" format="1">
  <advance width="541"/>
  <unicode hex="0063"/>
  <outline>
    <contour>
      <point x="296" y="31" type="curve" smooth="yes"/>
      <point x="182" y="31"/>
      <point x="112" y="116"/>
      <point x="112" y="253" type="curve" smooth="yes"/>
      <point x="112" y="384"/>
      <point x="179" y="475"/>
      <point x="306" y="475" type="curve" smooth="yes"/>
      <point x="377" y="475"/>
      <point x="432" y="444"/>
      <point x="454" y="405" type="curve"/>
      <point x="468" y="418"/>
      <point x="449" y="444"/>
      <point x="421" y="452" type="curve"/>
      <point x="421" y="356" type="line"/>
      <point x="488" y="356" type="line"/>
      <point x="488" y="455" type="line"/>
      <point x="469" y="476"/>
      <point x="406" y="518"/>
      <point x="306" y="518" type="curve" smooth="yes"/>
      <point x="146" y="518"/>
      <point x="45" y="408"/>
      <point x="45" y="253" type="curve" smooth="yes"/>
      <point x="45" y="94"/>
      <point x="148" y="-12"/>
      <point x="295" y="-12" type="curve" smooth="yes"/>
      <point x="404" y="-12"/>
      <point x="464" y="48"/>
      <point x="503" y="117" type="curve"/>
      <point x="470" y="149" type="line"/>
      <point x="442" y="95"/>
      <point x="391" y="31"/>
    </contour>
    <contour>
      <point x="288" y="551" type="move" name="top"/>
    </contour>
    <contour>
      <point x="298" y="0" type="move" name="bottom"/>
    </contour>
  </outline>
</glyph>
<glyph name="e" format="1">
  <advance width="529"/>
  <unicode hex="0065"/>
  <outline>
    <contour>
      <point x="289" y="-12" type="curve" smooth="yes"/>
      <point x="387" y="-12"/>
      <point x="448" y="36"/>
      <point x="486" y="102" type="curve"/>
      <point x="451" y="134" type="line"/>
      <point x="423" y="84"/>
      <point x="376" y="31"/>
      <point x="290" y="31" type="curve" smooth="yes"/>
      <point x="188" y="31"/>
      <point x="110" y="110"/>
      <point x="110" y="249" type="curve" smooth="yes"/>
      <point x="110" y="389"/>
      <point x="181" y="475"/>
      <point x="275" y="475" type="curve" smooth="yes"/>
      <point x="373" y="475"/>
      <point x="418" y="407"/>
      <point x="421" y="265" type="curve"/>
      <point x="443" y="284" type="line"/>
      <point x="85" y="284" type="line"/>
      <point x="86" y="242" type="line"/>
      <point x="488" y="242" type="line"/>
      <point x="487" y="423"/>
      <point x="414" y="518"/>
      <point x="275" y="518" type="curve" smooth="yes"/>
      <point x="145" y="518"/>
      <point x="45" y="409"/>
      <point x="45" y="251" type="curve" smooth="yes"/>
      <point x="45" y="90"/>
      <point x="152" y="-12"/>
    </contour>
    <contour>
      <point x="270" y="551" type="move" name="top"/>
    </contour>
    <contour>
      <point x="418" y="1" type="move" name="right"/>
    </contour>
    <contour>
      <point x="288" y="0" type="move" name="bottom"/>
    </contour>
  </outline>
</glyph>
<glyph name="k" format="1">
  <advance width="607"/>
  <unicode hex="006B"/>
  <outline>
    <contour>
      <point x="37" y="0" type="line"/>
      <point x="259" y="0" type="line"/>
      <point x="259" y="35" type="line"/>
      <point x="256" y="35" type="line" smooth="yes"/>
      <point x="229" y="35"/>
      <point x="184" y="38"/>
      <point x="184" y="45" type="curve" smooth="yes"/>
      <point x="184" y="735" type="line"/>
      <point x="36" y="735" type="line"/>
      <point x="36" y="698" type="line"/>
      <point x="47" y="696" type="line" smooth="yes"/>
      <point x="98" y="687"/>
      <point x="121" y="680"/>
      <point x="121" y="651" type="curve" smooth="yes"/>
      <point x="121" y="71" type="line" smooth="yes"/>
      <point x="121" y="42"/>
      <point x="87" y="35"/>
      <point x="39" y="35" type="curve"/>
      <point x="37" y="35" type="line"/>
    </contour>
    <contour>
      <point x="582" y="0" type="line"/>
      <point x="582" y="37" type="line"/>
      <point x="580" y="37" type="line"/>
      <point x="544" y="37"/>
      <point x="514" y="44"/>
      <point x="484" y="75" type="curve" smooth="yes"/>
      <point x="272" y="299" type="line"/>
      <point x="272" y="269" type="line"/>
      <point x="438" y="422" type="line" smooth="yes"/>
      <point x="475" y="455"/>
      <point x="510" y="471"/>
      <point x="552" y="471" type="curve"/>
      <point x="554" y="471" type="line"/>
      <point x="554" y="508" type="line"/>
      <point x="322" y="508" type="line"/>
      <point x="322" y="471" type="line"/>
      <point x="326" y="471" type="line"/>
      <point x="358" y="471"/>
      <point x="409" y="468"/>
      <point x="409" y="453" type="curve"/>
      <point x="218" y="277" type="line"/>
      <point x="218" y="272" type="line"/>
      <point x="431" y="47" type="line"/>
      <point x="431" y="40"/>
      <point x="387" y="37"/>
      <point x="357" y="37" type="curve"/>
      <point x="353" y="37" type="line"/>
      <point x="353" y="0" type="line"/>
    </contour>
    <contour>
      <point x="306" y="0" type="move" name="bottom"/>
    </contour>
  </outline>
</glyph>
<glyph name="n" format="1">
  <advance width="621"/>
  <unicode hex="006E"/>
  <outline>
    <contour>
      <point x="36" y="0" type="line"/>
      <point x="258" y="0" type="line"/>
      <point x="258" y="35" type="line"/>
      <point x="255" y="35" type="line" smooth="yes"/>
      <point x="227" y="35"/>
      <point x="183" y="38"/>
      <point x="183" y="45" type="curve" smooth="yes"/>
      <point x="183" y="395" type="line"/>
      <point x="179" y="395" type="line"/>
      <point x="179" y="508" type="line"/>
      <point x="36" y="508" type="line"/>
      <point x="36" y="473" type="line"/>
      <point x="46" y="471" type="line" smooth="yes"/>
      <point x="96" y="461"/>
      <point x="120" y="455"/>
      <point x="120" y="426" type="curve" smooth="yes"/>
      <point x="120" y="71" type="line" smooth="yes"/>
      <point x="120" y="42"/>
      <point x="86" y="35"/>
      <point x="38" y="35" type="curve" smooth="yes"/>
      <point x="36" y="35" type="line"/>
    </contour>
    <contour>
      <point x="595" y="0" type="line"/>
      <point x="595" y="35" type="line"/>
      <point x="593" y="35" type="line" smooth="yes"/>
      <point x="545" y="35"/>
      <point x="511" y="42"/>
      <point x="511" y="71" type="curve" smooth="yes"/>
      <point x="511" y="357" type="line" smooth="yes"/>
      <point x="511" y="468"/>
      <point x="452" y="518"/>
      <point x="358" y="518" type="curve" smooth="yes"/>
      <point x="265" y="518"/>
      <point x="204" y="465"/>
      <point x="138" y="356" type="curve"/>
      <point x="157" y="328" type="line"/>
      <point x="209" y="419"/>
      <point x="270" y="471"/>
      <point x="347" y="471" type="curve" smooth="yes"/>
      <point x="423" y="471"/>
      <point x="448" y="432"/>
      <point x="448" y="346" type="curve" smooth="yes"/>
      <point x="448" y="45" type="line" smooth="yes"/>
      <point x="448" y="38"/>
      <point x="403" y="35"/>
      <point x="375" y="35" type="curve" smooth="yes"/>
      <point x="373" y="35" type="line"/>
      <point x="373" y="0" type="line"/>
    </contour>
    <contour>
      <point x="306" y="551" type="move" name="top"/>
    </contour>
    <contour>
      <point x="313" y="0" type="move" name="bottom"/>
    </contour>
  </outline>
</glyph>
<glyph name="o" format="1">
  <advance width="585"/>
  <unicode hex="006F"/>
  <outline>
    <contour>
      <point x="293" y="-12" type="curve"/>
      <point x="437" y="-12"/>
      <point x="540" y="95"/>
      <point x="540" y="253" type="curve" smooth="yes"/>
      <point x="540" y="409"/>
      <point x="437" y="518"/>
      <point x="293" y="518" type="curve" smooth="yes"/>
      <point x="149" y="518"/>
      <point x="45" y="410"/>
      <point x="45" y="253" type="curve" smooth="yes"/>
      <point x="45" y="95"/>
      <point x="149" y="-12"/>
    </contour>
    <contour>
      <point x="293" y="31" type="curve"/>
      <point x="181" y="31"/>
      <point x="112" y="118"/>
      <point x="112" y="253" type="curve" smooth="yes"/>
      <point x="112" y="386"/>
      <point x="181" y="475"/>
      <point x="293" y="475" type="curve" smooth="yes"/>
      <point x="404" y="475"/>
      <point x="473" y="386"/>
      <point x="473" y="253" type="curve" smooth="yes"/>
      <point x="473" y="117"/>
      <point x="404" y="31"/>
    </contour>
    <contour>
      <point x="293" y="551" type="move" name="top"/>
    </contour>
    <contour>
      <point x="389" y="0" type="move" name="right"/>
    </contour>
    <contour>
      <point x="293" y="0" type="move" name="bottom"/>
    </contour>
  </outline>
</glyph>
<glyph name="p" format="1">
  <advance width="630"/>
  <unicode hex="0070"/>
  <outline>
    <contour>
      <point x="34" y="-223" type="line"/>
      <point x="283" y="-223" type="line"/>
      <point x="283" y="-188" type="line"/>
      <point x="254" y="-188" type="line" smooth="yes"/>
      <point x="228" y="-188"/>
      <point x="181" y="-185"/>
      <point x="181" y="-178" type="curve" smooth="yes"/>
      <point x="181" y="370" type="line"/>
      <point x="177" y="371" type="line"/>
      <point x="177" y="508" type="line"/>
      <point x="34" y="508" type="line"/>
      <point x="34" y="473" type="line"/>
      <point x="44" y="471" type="line" smooth="yes"/>
      <point x="94" y="461"/>
      <point x="118" y="455"/>
      <point x="118" y="426" type="curve" smooth="yes"/>
      <point x="118" y="-152" type="line" smooth="yes"/>
      <point x="118" y="-181"/>
      <point x="84" y="-188"/>
      <point x="36" y="-188" type="curve"/>
      <point x="34" y="-188" type="line"/>
    </contour>
    <contour>
      <point x="518" y="257" type="curve" smooth="yes"/>
      <point x="518" y="122"/>
      <point x="461" y="32"/>
      <point x="354" y="32" type="curve" smooth="yes"/>
      <point x="272" y="32"/>
      <point x="211" y="89"/>
      <point x="167" y="188" type="curve"/>
      <point x="138" y="166" type="line"/>
      <point x="198" y="48"/>
      <point x="255" y="-11"/>
      <point x="357" y="-11" type="curve" smooth="yes"/>
      <point x="494" y="-11"/>
      <point x="585" y="99"/>
      <point x="585" y="257" type="curve" smooth="yes"/>
      <point x="585" y="414"/>
      <point x="498" y="518"/>
      <point x="364" y="518" type="curve" smooth="yes"/>
      <point x="258" y="518"/>
      <point x="201" y="453"/>
      <point x="134" y="334" type="curve"/>
      <point x="161" y="309" type="line"/>
      <point x="211" y="412"/>
      <point x="273" y="475"/>
      <point x="358" y="475" type="curve" smooth="yes"/>
      <point x="463" y="475"/>
      <point x="518" y="391"/>
    </contour>
  </outline>
</glyph>
<glyph name="s" format="1">
  <advance width="459"/>
  <unicode hex="0073"/>
  <outline>
    <contour>
      <point x="362" y="129" type="curve" smooth="yes"/>
      <point x="362" y="68"/>
      <point x="312" y="32"/>
      <point x="234" y="32" type="curve" smooth="yes"/>
      <point x="169" y="32"/>
      <point x="118" y="47"/>
      <point x="79" y="86" type="curve"/>
      <point x="75" y="68"/>
      <point x="77" y="49"/>
      <point x="103" y="29" type="curve"/>
      <point x="103" y="141" type="line"/>
      <point x="37" y="141" type="line"/>
      <point x="37" y="43" type="line"/>
      <point x="82" y="12"/>
      <point x="146" y="-11"/>
      <point x="234" y="-11" type="curve" smooth="yes"/>
      <point x="352" y="-11"/>
      <point x="422" y="54"/>
      <point x="422" y="137" type="curve" smooth="yes"/>
      <point x="422" y="234"/>
      <point x="338" y="260"/>
      <point x="259" y="283" type="curve" smooth="yes"/>
      <point x="187" y="304"/>
      <point x="118" y="317"/>
      <point x="118" y="386" type="curve" smooth="yes"/>
      <point x="118" y="437"/>
      <point x="157" y="475"/>
      <point x="233" y="475" type="curve" smooth="yes"/>
      <point x="286" y="475"/>
      <point x="328" y="458"/>
      <point x="352" y="428" type="curve"/>
      <point x="355" y="446"/>
      <point x="345" y="462"/>
      <point x="328" y="466" type="curve"/>
      <point x="328" y="382" type="line"/>
      <point x="393" y="382" type="line"/>
      <point x="393" y="473" type="line"/>
      <point x="368" y="493"/>
      <point x="316" y="518"/>
      <point x="233" y="518" type="curve" smooth="yes"/>
      <point x="124" y="518"/>
      <point x="58" y="462"/>
      <point x="58" y="379" type="curve" smooth="yes"/>
      <point x="58" y="281"/>
      <point x="142" y="256"/>
      <point x="222" y="234" type="curve" smooth="yes"/>
      <point x="294" y="214"/>
      <point x="362" y="197"/>
    </contour>
    <contour>
      <point x="230" y="546" type="move" name="top"/>
    </contour>
    <contour>
      <point x="231" y="0" type="move" name="bottom"/>
    </contour>
  </outline>
</glyph>
<glyph name="registered" format="1">
  <advance width="840"/>
  <unicode hex="00AE"/>
  <outline>
    <contour>
      <point x="86" y="355" type="curve" smooth="yes"/>
      <point x="86" y="548"/>
      <point x="227" y="699"/>
      <point x="420" y="699" type="curve" smooth="yes"/>
      <point x="613" y="699"/>
      <point x="754" y="548"/>
      <point x="754" y="355" type="curve" smooth="yes"/>
      <point x="754" y="162"/>
      <point x="613" y="11"/>
      <point x="420" y="11" type="curve" smooth="yes"/>
      <point x="227" y="11"/>
      <point x="86" y="162"/>
    </contour>
    <contour>
      <point x="40" y="355" type="curve" smooth="yes"/>
      <point x="40" y="138"/>
      <point x="205" y="-28"/>
      <point x="420" y="-28" type="curve" smooth="yes"/>
      <point x="635" y="-28"/>
      <point x="800" y="138"/>
      <point x="800" y="355" type="curve" smooth="yes"/>
      <point x="800" y="572"/>
      <point x="635" y="738"/>
      <point x="420" y="738" type="curve" smooth="yes"/>
      <point x="205" y="738"/>
      <point x="40" y="572"/>
    </contour>
    <contour>
      <point x="257" y="153" type="line"/>
      <point x="428" y="153" type="line"/>
      <point x="428" y="187" type="line"/>
      <point x="412" y="187" type="line" smooth="yes"/>
      <point x="393" y="187"/>
      <point x="368" y="188"/>
      <point x="368" y="192" type="curve" smooth="yes"/>
      <point x="368" y="317" type="line"/>
      <point x="423" y="317" type="line" smooth="yes"/>
      <point x="515" y="317"/>
      <point x="581" y="365"/>
      <point x="581" y="441" type="curve" smooth="yes"/>
      <point x="581" y="514"/>
      <point x="520" y="557"/>
      <point x="426" y="557" type="curve" smooth="yes"/>
      <point x="257" y="557" type="line"/>
      <point x="257" y="523" type="line"/>
      <point x="263" y="523" type="line" smooth="yes"/>
      <point x="291" y="523"/>
      <point x="312" y="519"/>
      <point x="312" y="503" type="curve" smooth="yes"/>
      <point x="312" y="207" type="line" smooth="yes"/>
      <point x="312" y="191"/>
      <point x="291" y="187"/>
      <point x="263" y="187" type="curve" smooth="yes"/>
      <point x="257" y="187" type="line"/>
    </contour>
    <contour>
      <point x="426" y="520" type="line" smooth="yes"/>
      <point x="490" y="520"/>
      <point x="521" y="497"/>
      <point x="521" y="441" type="curve" smooth="yes"/>
      <point x="521" y="384"/>
      <point x="490" y="354"/>
      <point x="423" y="354" type="curve" smooth="yes"/>
      <point x="368" y="354" type="line"/>
      <point x="368" y="520" type="line"/>
    </contour>
    <contour>
      <point x="427" y="338" type="line"/>
      <point x="518" y="152" type="line"/>
      <point x="606" y="152" type="line"/>
      <point x="606" y="186" type="line"/>
      <point x="594" y="186" type="line" smooth="yes"/>
      <point x="577" y="186"/>
      <point x="563" y="189"/>
      <point x="556" y="202" type="curve" smooth="yes"/>
      <point x="480" y="346" type="line"/>
    </contour>
  </outline>
</glyph>
<glyph name="Eth" format="1">
  <advance width="746"/>
  <unicode hex="00D0"/>
  <outline>
    <contour>
      <point x="45" y="375" type="line"/>
      <point x="45" y="335" type="line"/>
      <point x="435" y="335" type="line"/>
      <point x="435" y="375" type="line"/>
    </contour>
    <component base="D"/>
  </outline>
</glyph>
<glyph name="hbar" format="1">
  <advance width="621"/>
  <unicode hex="0127"/>
  <outline>
    <contour>
      <point x="596" y="0" type="line"/>
      <point x="596" y="35" type="line"/>
      <point x="594" y="35" type="line" smooth="yes"/>
      <point x="546" y="35"/>
      <point x="512" y="42"/>
      <point x="512" y="71" type="curve" smooth="yes"/>
      <point x="512" y="357" type="line" smooth="yes"/>
      <point x="512" y="468"/>
      <point x="453" y="518"/>
      <point x="358" y="518" type="curve" smooth="yes"/>
      <point x="265" y="518"/>
      <point x="204" y="465"/>
      <point x="138" y="356" type="curve"/>
      <point x="157" y="328" type="line"/>
      <point x="209" y="419"/>
      <point x="270" y="471"/>
      <point x="348" y="471" type="curve" smooth="yes"/>
      <point x="423" y="471"/>
      <point x="449" y="432"/>
      <point x="449" y="346" type="curve" smooth="yes"/>
      <point x="449" y="45" type="line" smooth="yes"/>
      <point x="449" y="38"/>
      <point x="404" y="35"/>
      <point x="376" y="35" type="curve" smooth="yes"/>
      <point x="374" y="35" type="line"/>
      <point x="374" y="0" type="line"/>
    </contour>
    <contour>
      <point x="121" y="735" type="line"/>
      <point x="121" y="71" type="line" smooth="yes"/>
      <point x="121" y="42"/>
      <point x="86" y="35"/>
      <point x="38" y="35" type="curve" smooth="yes"/>
      <point x="36" y="35" type="line"/>
      <point x="36" y="0" type="line"/>
      <point x="259" y="0" type="line"/>
      <point x="259" y="35" type="line"/>
      <point x="256" y="35" type="line" smooth="yes"/>
      <point x="228" y="35"/>
      <point x="184" y="38"/>
      <point x="184" y="45" type="curve"/>
      <point x="184" y="735" type="line"/>
    </contour>
    <contour>
      <point x="392" y="632" type="line"/>
      <point x="20" y="632" type="line"/>
      <point x="20" y="592" type="line"/>
      <point x="392" y="592" type="line"/>
    </contour>
  </outline>
</glyph>
<glyph name="Uogonek" format="1">
  <advance width="795"/>
  <unicode hex="0172"/>
  <outline>
    <contour>
      <point x="463" y="-234" type="curve" smooth="yes"/>
      <point x="510" y="-234"/>
      <point x="540" y="-214"/>
      <point x="567" y="-185" type="curve"/>
      <point x="543" y="-158" type="line"/>
      <point x="525" y="-176"/>
      <point x="505" y="-194"/>
      <point x="477" y="-194" type="curve" smooth="yes"/>
      <point x="448" y="-194"/>
      <point x="425" y="-175"/>
      <point x="425" y="-138" type="curve" smooth="yes"/>
      <point x="425" y="-65"/>
      <point x="501" y="-13"/>
      <point x="574" y="49" type="curve" smooth="yes"/>
      <point x="624" y="94"/>
      <point x="655" y="166"/>
      <point x="655" y="271" type="curve" smooth="yes"/>
      <point x="655" y="626" type="line" smooth="yes"/>
      <point x="655" y="660"/>
      <point x="691" y="672"/>
      <point x="740" y="672" type="curve" smooth="yes"/>
      <point x="751" y="672" type="line"/>
      <point x="751" y="710" type="line"/>
      <point x="511" y="710" type="line"/>
      <point x="511" y="672" type="line"/>
      <point x="520" y="672" type="line" smooth="yes"/>
      <point x="558" y="672"/>
      <point x="607" y="664"/>
      <point x="607" y="650" type="curve" smooth="yes"/>
      <point x="607" y="271" type="line" smooth="yes"/>
      <point x="607" y="99"/>
      <point x="521" y="40"/>
      <point x="407" y="40" type="curve" smooth="yes"/>
      <point x="292" y="40"/>
      <point x="205" y="98"/>
      <point x="205" y="271" type="curve" smooth="yes"/>
      <point x="205" y="662" type="line" smooth="yes"/>
      <point x="205" y="669"/>
      <point x="254" y="672"/>
      <point x="292" y="672" type="curve" smooth="yes"/>
      <point x="301" y="672" type="line"/>
      <point x="301" y="710" type="line"/>
      <point x="44" y="710" type="line"/>
      <point x="44" y="672" type="line"/>
      <point x="55" y="672" type="line" smooth="yes"/>
      <point x="104" y="672"/>
      <point x="140" y="665"/>
      <point x="140" y="636" type="curve" smooth="yes"/>
      <point x="140" y="271" type="line" smooth="yes"/>
      <point x="140" y="69"/>
      <point x="250" y="-10"/>
      <point x="399" y="-10" type="curve" smooth="yes"/>
      <point x="441" y="-10"/>
      <point x="480" y="-4"/>
      <point x="514" y="12" type="curve"/>
      <point x="516" y="32" type="line"/>
      <point x="433" y="-23"/>
      <point x="362" y="-74"/>
      <point x="362" y="-142" type="curve" smooth="yes"/>
      <point x="362" y="-200"/>
      <point x="406" y="-234"/>
    </contour>
  </outline>
</glyph>
<glyph name="circumflex" format="1">
  <advance width="500"/>
  <unicode hex="02C6"/>
  <outline>
    <contour>
      <point x="284" y="739" type="line"/>
      <point x="389" y="595" type="line"/>
      <point x="389" y="585" type="line"/>
      <point x="355" y="585" type="line"/>
      <point x="230" y="707" type="line"/>
      <point x="261" y="707" type="line"/>
      <point x="137" y="585" type="line"/>
      <point x="112" y="585" type="line"/>
      <point x="112" y="595" type="line"/>
      <point x="215" y="739" type="line"/>
    </contour>
    <contour>
      <point x="246" y="529" type="move" name="_top"/>
    </contour>
  </outline>
</glyph>
<glyph name="Delta" format="1">
  <advance width="714"/>
  <unicode hex="0394"/>
  <outline>
    <contour>
      <point x="40" y="0" type="line"/>
      <point x="675" y="0" type="line"/>
      <point x="675" y="50" type="line"/>
      <point x="395" y="710" type="line"/>
      <point x="320" y="710" type="line"/>
      <point x="40" y="50" type="line"/>
    </contour>
    <contour>
      <point x="615" y="34" type="line"/>
      <point x="634" y="55" type="line"/>
      <point x="71" y="55" type="line"/>
      <point x="85" y="30" type="line"/>
      <point x="363" y="697" type="line"/>
      <point x="337" y="698" type="line"/>
    </contour>
  </outline>
</glyph>
<glyph name="pi" format="1">
  <advance width="723"/>
  <unicode hex="03C0"/>
  <outline>
    <contour>
      <point x="285" y="0" type="line"/>
      <point x="285" y="483" type="line"/>
      <point x="241" y="483" type="line"/>
      <point x="232" y="215"/>
      <point x="218" y="186"/>
      <point x="218" y="0" type="curve"/>
    </contour>
    <contour>
      <point x="666" y="455" type="line"/>
      <point x="666" y="508" type="line"/>
      <point x="267" y="508" type="line" smooth="yes"/>
      <point x="138" y="508"/>
      <point x="73" y="443"/>
      <point x="48" y="339" type="curve"/>
      <point x="89" y="317" type="line"/>
      <point x="111" y="403"/>
      <point x="151" y="455"/>
      <point x="259" y="455" type="curve" smooth="yes"/>
    </contour>
    <contour>
      <point x="537" y="98" type="curve" smooth="yes"/>
      <point x="537" y="483" type="line"/>
      <point x="490" y="483" type="line"/>
      <point x="482" y="238"/>
      <point x="470" y="164"/>
      <point x="470" y="101" type="curve" smooth="yes"/>
      <point x="470" y="25"/>
      <point x="510" y="-8"/>
      <point x="570" y="-8" type="curve" smooth="yes"/>
      <point x="632" y="-8"/>
      <point x="665" y="35"/>
      <point x="684" y="83" type="curve"/>
      <point x="652" y="104" type="line"/>
      <point x="641" y="79"/>
      <point x="620" y="38"/>
      <point x="581" y="38" type="curve" smooth="yes"/>
      <point x="555" y="38"/>
      <point x="537" y="53"/>
    </contour>
  </outline>
</glyph>
<glyph name="guilsinglleft" format="1">
  <advance width="288"/>
  <unicode hex="2039"/>
  <outline>
    <contour>
      <point x="100" y="232" type="line"/>
      <point x="233" y="455" type="line"/>
      <point x="196" y="455" type="line"/>
      <point x="54" y="283" type="line"/>
      <point x="54" y="247" type="line"/>
      <point x="196" y="75" type="line"/>
      <point x="233" y="75" type="line"/>
      <point x="101" y="295" type="line"/>
    </contour>
  </outline>
</glyph>
<glyph name="fraction" format="1">
  <advance width="424"/>
  <unicode hex="2044"/>
  <outline>
    <contour>
      <point x="498" y="710" type="line"/>
      <point x="-121" y="0" type="line"/>
      <point x="-65" y="0" type="line"/>
      <point x="554" y="710" type="line"/>
    </contour>
  </outline>
</glyph>
<glyph name="peseta" format="1">
  <advance width="560"/>
  <unicode hex="20A7"/>
  <outline>
    <contour>
      <point x="-2" y="0" type="line"/>
      <point x="191" y="0" type="line"/>
      <point x="191" y="38" type="line"/>
      <point x="172" y="38" type="line" smooth="yes"/>
      <point x="148" y="38"/>
      <point x="118" y="41"/>
      <point x="118" y="48" type="curve" smooth="yes"/>
      <point x="118" y="268" type="line"/>
      <point x="134" y="268" type="line" smooth="yes"/>
      <point x="272" y="268"/>
      <point x="342" y="360"/>
      <point x="342" y="492" type="curve" smooth="yes"/>
      <point x="342" y="625"/>
      <point x="275" y="710"/>
      <point x="139" y="710" type="curve" smooth="yes"/>
      <point x="-2" y="710" type="line"/>
      <point x="-2" y="672" type="line"/>
      <point x="6" y="672" type="line" smooth="yes"/>
      <point x="36" y="672"/>
      <point x="56" y="665"/>
      <point x="56" y="636" type="curve" smooth="yes"/>
      <point x="56" y="74" type="line" smooth="yes"/>
      <point x="56" y="45"/>
      <point x="36" y="38"/>
      <point x="6" y="38" type="curve" smooth="yes"/>
      <point x="-2" y="38" type="line"/>
    </contour>
    <contour>
      <point x="140" y="667" type="line" smooth="yes"/>
      <point x="236" y="667"/>
      <point x="277" y="602"/>
      <point x="277" y="491" type="curve" smooth="yes"/>
      <point x="277" y="382"/>
      <point x="237" y="309"/>
      <point x="135" y="309" type="curve" smooth="yes"/>
      <point x="118" y="309" type="line"/>
      <point x="118" y="667" type="line"/>
    </contour>
    <contour>
      <point x="319" y="465" type="line"/>
      <point x="561" y="465" type="line"/>
      <point x="561" y="508" type="line"/>
      <point x="445" y="508" type="line"/>
      <point x="411" y="563" type="line"/>
      <point x="411" y="513"/>
      <point x="388" y="503"/>
      <point x="345" y="503" type="curve" smooth="yes"/>
      <point x="319" y="503" type="line"/>
    </contour>
    <contour>
      <point x="461" y="110" type="curve" smooth="yes"/>
      <point x="461" y="648" type="line"/>
      <point x="411" y="648" type="line"/>
      <point x="411" y="500" type="line"/>
      <point x="400" y="492" type="line"/>
      <point x="400" y="110" type="line" smooth="yes"/>
      <point x="400" y="23"/>
      <point x="447" y="-11"/>
      <point x="513" y="-11" type="curve" smooth="yes"/>
      <point x="540" y="-11"/>
      <point x="558" y="-6"/>
      <point x="568" y="-2" type="curve"/>
      <point x="568" y="43" type="line"/>
      <point x="559" y="40"/>
      <point x="541" y="35"/>
      <point x="524" y="35" type="curve" smooth="yes"/>
      <point x="485" y="35"/>
      <point x="461" y="59"/>
    </contour>
  </outline>
</glyph>
<glyph name="uni20B4" format="1">
  <advance width="560"/>
  <unicode hex="20B4"/>
  <outline>
    <contour>
      <point x="18" y="461" type="line"/>
      <point x="18" y="419" type="line"/>
      <point x="542" y="419" type="line"/>
      <point x="542" y="461" type="line"/>
    </contour>
    <contour>
      <point x="18" y="316" type="line"/>
      <point x="18" y="274" type="line"/>
      <point x="542" y="274" type="line"/>
      <point x="542" y="316" type="line"/>
    </contour>
    <contour>
      <point x="295" y="720" type="curve" smooth="yes"/>
      <point x="202" y="720"/>
      <point x="132" y="682"/>
      <point x="101" y="654" type="curve"/>
      <point x="101" y="556" type="line"/>
      <point x="170" y="556" type="line"/>
      <point x="170" y="657" type="line"/>
      <point x="150" y="654"/>
      <point x="127" y="629"/>
      <point x="133" y="607" type="curve"/>
      <point x="163" y="645"/>
      <point x="217" y="676"/>
      <point x="292" y="676" type="curve" smooth="yes"/>
      <point x="382" y="676"/>
      <point x="422" y="633"/>
      <point x="422" y="568" type="curve" smooth="yes"/>
      <point x="422" y="516"/>
      <point x="397" y="473"/>
      <point x="355" y="442" type="curve"/>
      <point x="434" y="435" type="line"/>
      <point x="462" y="465"/>
      <point x="482" y="510"/>
      <point x="482" y="564" type="curve" smooth="yes"/>
      <point x="482" y="660"/>
      <point x="414" y="720"/>
    </contour>
    <contour>
      <point x="285" y="-10" type="curve" smooth="yes"/>
      <point x="391" y="-10"/>
      <point x="469" y="39"/>
      <point x="506" y="72" type="curve"/>
      <point x="506" y="178" type="line"/>
      <point x="436" y="178" type="line"/>
      <point x="436" y="66" type="line"/>
      <point x="457" y="70"/>
      <point x="478" y="105"/>
      <point x="472" y="118" type="curve"/>
      <point x="433" y="70"/>
      <point x="371" y="34"/>
      <point x="288" y="34" type="curve" smooth="yes"/>
      <point x="198" y="34"/>
      <point x="136" y="77"/>
      <point x="136" y="163" type="curve" smooth="yes"/>
      <point x="136" y="215"/>
      <point x="158" y="263"/>
      <point x="200" y="293" type="curve"/>
      <point x="116" y="291" type="line"/>
      <point x="88" y="264"/>
      <point x="73" y="222"/>
      <point x="73" y="172" type="curve" smooth="yes"/>
      <point x="73" y="54"/>
      <point x="161" y="-10"/>
    </contour>
  </outline>
</glyph>
<glyph name="servicemark" format="1">
  <advance width="839"/>
  <unicode hex="2120"/>
  <outline>
    <contour>
      <point x="378" y="395" type="line"/>
      <point x="491" y="395" type="line"/>
      <point x="491" y="424" type="line"/>
      <point x="488" y="424" type="line" smooth="yes"/>
      <point x="478" y="424"/>
      <point x="457" y="427"/>
      <point x="457" y="429" type="curve" smooth="yes"/>
      <point x="457" y="702" type="line"/>
      <point x="453" y="701" type="line"/>
      <point x="554" y="394" type="line"/>
      <point x="590" y="394" type="line"/>
      <point x="694" y="701" type="line"/>
      <point x="689" y="701" type="line"/>
      <point x="689" y="429" type="line" smooth="yes"/>
      <point x="689" y="427"/>
      <point x="671" y="424"/>
      <point x="659" y="424" type="curve" smooth="yes"/>
      <point x="655" y="424" type="line"/>
      <point x="655" y="395" type="line"/>
      <point x="779" y="395" type="line"/>
      <point x="779" y="424" type="line"/>
      <point x="772" y="424" type="line" smooth="yes"/>
      <point x="750" y="424"/>
      <point x="735" y="428"/>
      <point x="735" y="441" type="curve" smooth="yes"/>
      <point x="735" y="665" type="line" smooth="yes"/>
      <point x="735" y="679"/>
      <point x="750" y="681"/>
      <point x="772" y="681" type="curve" smooth="yes"/>
      <point x="779" y="681" type="line"/>
      <point x="779" y="710" type="line"/>
      <point x="661" y="710" type="line"/>
      <point x="571" y="435" type="line"/>
      <point x="583" y="434" type="line"/>
      <point x="499" y="710" type="line"/>
      <point x="378" y="710" type="line"/>
      <point x="378" y="681" type="line"/>
      <point x="384" y="681" type="line" smooth="yes"/>
      <point x="405" y="681"/>
      <point x="422" y="679"/>
      <point x="422" y="665" type="curve" smooth="yes"/>
      <point x="422" y="441" type="line" smooth="yes"/>
      <point x="422" y="428"/>
      <point x="405" y="424"/>
      <point x="384" y="424" type="curve"/>
      <point x="378" y="424" type="line"/>
    </contour>
    <contour>
      <point x="218" y="420" type="curve" smooth="yes"/>
      <point x="166" y="420"/>
      <point x="128" y="454"/>
      <point x="112" y="497" type="curve"/>
      <point x="75" y="497" type="line"/>
      <point x="75" y="391" type="line"/>
      <point x="105" y="391" type="line"/>
      <point x="112" y="473" type="line"/>
      <point x="102" y="479"/>
      <point x="103" y="459"/>
      <point x="90" y="482" type="curve"/>
      <point x="112" y="416"/>
      <point x="162" y="386"/>
      <point x="219" y="386" type="curve" smooth="yes"/>
      <point x="275" y="386"/>
      <point x="326" y="417"/>
      <point x="326" y="484" type="curve" smooth="yes"/>
      <point x="326" y="535"/>
      <point x="289" y="562"/>
      <point x="222" y="579" type="curve" smooth="yes"/>
      <point x="174" y="592"/>
      <point x="130" y="601"/>
      <point x="130" y="643" type="curve" smooth="yes"/>
      <point x="130" y="670"/>
      <point x="152" y="689"/>
      <point x="189" y="689" type="curve" smooth="yes"/>
      <point x="230" y="689"/>
      <point x="256" y="663"/>
      <point x="272" y="626" type="curve"/>
      <point x="307" y="626" type="line"/>
      <point x="307" y="716" type="line"/>
      <point x="279" y="716" type="line"/>
      <point x="272" y="645" type="line"/>
      <point x="281" y="638"/>
      <point x="283" y="641"/>
      <point x="291" y="642" type="curve"/>
      <point x="270" y="699"/>
      <point x="235" y="720"/>
      <point x="187" y="720" type="curve" smooth="yes"/>
      <point x="131" y="720"/>
      <point x="89" y="689"/>
      <point x="89" y="636" type="curve" smooth="yes"/>
      <point x="89" y="573"/>
      <point x="141" y="553"/>
      <point x="194" y="539" type="curve" smooth="yes"/>
      <point x="258" y="522"/>
      <point x="283" y="508"/>
      <point x="283" y="473" type="curve" smooth="yes"/>
      <point x="283" y="438"/>
      <point x="256" y="420"/>
    </contour>
  </outline>
</glyph>
<glyph name="partialdiff" format="1">
  <advance width="558"/>
  <unicode hex="2202"/>
  <outline>
    <contour>
      <point x="231" y="-12" type="curve" smooth="yes"/>
      <point x="393" y="-12"/>
      <point x="502" y="199"/>
      <point x="502" y="457" type="curve" smooth="yes"/>
      <point x="502" y="665"/>
      <point x="422" y="748"/>
      <point x="302" y="748" type="curve" smooth="yes"/>
      <point x="252" y="748"/>
      <point x="202" y="731"/>
      <point x="163" y="704" type="curve"/>
      <point x="183" y="671" type="line"/>
      <point x="214" y="689"/>
      <point x="254" y="707"/>
      <point x="297" y="707" type="curve" smooth="yes"/>
      <point x="380" y="707"/>
      <point x="439" y="646"/>
      <point x="439" y="489" type="curve" smooth="yes"/>
      <point x="439" y="260"/>
      <point x="368" y="29"/>
      <point x="232" y="29" type="curve" smooth="yes"/>
      <point x="156" y="29"/>
      <point x="120" y="90"/>
      <point x="120" y="206" type="curve" smooth="yes"/>
      <point x="120" y="355"/>
      <point x="204" y="477"/>
      <point x="318" y="477" type="curve" smooth="yes"/>
      <point x="386" y="477"/>
      <point x="443" y="441"/>
      <point x="469" y="389" type="curve"/>
      <point x="478" y="400"/>
      <point x="463" y="433"/>
      <point x="460" y="468" type="curve"/>
      <point x="437" y="487"/>
      <point x="396" y="518"/>
      <point x="320" y="518" type="curve" smooth="yes"/>
      <point x="176" y="518"/>
      <point x="55" y="372"/>
      <point x="55" y="197" type="curve" smooth="yes"/>
      <point x="55" y="73"/>
      <point x="119" y="-12"/>
    </contour>
  </outline>
</glyph>
<glyph name="hook" format="1">
  <advance width="510"/>
  <unicode hex="2440"/>
  <outline>
    <contour>
      <point x="128" y="692" type="line"/>
      <point x="133" y="736"/>
      <point x="169" y="772"/>
      <point x="237" y="772" type="curve" smooth="yes"/>
      <point x="302" y="772"/>
      <point x="338" y="745"/>
      <point x="338" y="697" type="curve" smooth="yes"/>
      <point x="338" y="642"/>
      <point x="284" y="617"/>
      <point x="223" y="612" type="curve"/>
      <point x="251" y="639" type="line"/>
      <point x="251" y="574" type="line"/>
      <point x="204" y="574" type="line"/>
      <point x="204" y="643" type="line"/>
      <point x="254" y="645"/>
      <point x="282" y="662"/>
      <point x="282" y="695" type="curve" smooth="yes"/>
      <point x="282" y="721"/>
      <point x="266" y="736"/>
      <point x="237" y="736" type="curve" smooth="yes"/>
      <point x="201" y="736"/>
      <point x="187" y="717"/>
      <point x="182" y="692" type="curve"/>
    </contour>
    <contour>
      <point x="231" y="517" type="move" name="_top"/>
    </contour>
  </outline>
</glyph>
<glyph name="at.uc" format="1">
  <advance width="860"/>
  <outline>
    <contour>
      <point x="446" y="-30" type="curve" smooth="yes"/>
      <point x="237" y="-30"/>
      <point x="90" y="99"/>
      <point x="90" y="304" type="curve" smooth="yes"/>
      <point x="90" y="525"/>
      <point x="253" y="693"/>
      <point x="475" y="693" type="curve" smooth="yes"/>
      <point x="668" y="693"/>
      <point x="777" y="570"/>
      <point x="777" y="413" type="curve" smooth="yes"/>
      <point x="777" y="247"/>
      <point x="703" y="161"/>
      <point x="636" y="161" type="curve" smooth="yes"/>
      <point x="587" y="161"/>
      <point x="565" y="189"/>
      <point x="576" y="250" type="curve" smooth="yes"/>
      <point x="626" y="539" type="line"/>
      <point x="590" y="539" type="line"/>
      <point x="559" y="464" type="line"/>
      <point x="551" y="459" type="line"/>
      <point x="510" y="216" type="line"/>
      <point x="512" y="212"/>
      <point x="515" y="213"/>
      <point x="516" y="214" type="curve"/>
      <point x="520" y="164"/>
      <point x="559" y="125"/>
      <point x="627" y="125" type="curve" smooth="yes"/>
      <point x="724" y="125"/>
      <point x="821" y="230"/>
      <point x="821" y="413" type="curve" smooth="yes"/>
      <point x="821" y="596"/>
      <point x="687" y="733"/>
      <point x="475" y="733" type="curve" smooth="yes"/>
      <point x="231" y="733"/>
      <point x="46" y="551"/>
      <point x="46" y="304" type="curve" smooth="yes"/>
      <point x="46" y="72"/>
      <point x="215" y="-70"/>
      <point x="446" y="-70" type="curve" smooth="yes"/>
      <point x="553" y="-70"/>
      <point x="650" y="-39"/>
      <point x="704" y="-9" type="curve"/>
      <point x="691" y="29" type="line"/>
      <point x="635" y="0"/>
      <point x="550" y="-30"/>
    </contour>
    <contour>
      <point x="395" y="120" type="curve" smooth="yes"/>
      <point x="466" y="120"/>
      <point x="503" y="173"/>
      <point x="560" y="253" type="curve"/>
      <point x="547" y="283" type="line"/>
      <point x="497" y="208"/>
      <point x="457" y="158"/>
      <point x="399" y="158" type="curve" smooth="yes"/>
      <point x="343" y="158"/>
      <point x="314" y="202"/>
      <point x="314" y="289" type="curve" smooth="yes"/>
      <point x="314" y="394"/>
      <point x="373" y="508"/>
      <point x="458" y="508" type="curve" smooth="yes"/>
      <point x="509" y="508"/>
      <point x="544" y="478"/>
      <point x="562" y="391" type="curve"/>
      <point x="583" y="427" type="line"/>
      <point x="564" y="513"/>
      <point x="521" y="545"/>
      <point x="458" y="545" type="curve" smooth="yes"/>
      <point x="332" y="545"/>
      <point x="252" y="419"/>
      <point x="252" y="294" type="curve" smooth="yes"/>
      <point x="252" y="182"/>
      <point x="311" y="120"/>
    </contour>
  </outline>
</glyph>
<glyph name="breve_tilde" format="1">
  <advance width="505"/>
  <outline>
    <contour>
      <point x="314" y="770" type="curve" smooth="yes"/>
      <point x="364" y="770"/>
      <point x="393" y="809"/>
      <point x="411" y="875" type="curve"/>
      <point x="374" y="888" type="line"/>
      <point x="361" y="846"/>
      <point x="348" y="819"/>
      <point x="320" y="819" type="curve" smooth="yes"/>
      <point x="277" y="819"/>
      <point x="248" y="888"/>
      <point x="182" y="888" type="curve" smooth="yes"/>
      <point x="130" y="888"/>
      <point x="103" y="851"/>
      <point x="89" y="781" type="curve"/>
      <point x="126" y="768" type="line"/>
      <point x="135" y="814"/>
      <point x="147" y="839"/>
      <point x="177" y="839" type="curve" smooth="yes"/>
      <point x="216" y="839"/>
      <point x="243" y="770"/>
    </contour>
    <contour>
      <point x="254" y="587" type="curve" smooth="yes"/>
      <point x="181" y="587"/>
      <point x="130" y="633"/>
      <point x="125" y="721" type="curve"/>
      <point x="169" y="721" type="line"/>
      <point x="177" y="662"/>
      <point x="206" y="641"/>
      <point x="256" y="641" type="curve" smooth="yes"/>
      <point x="305" y="641"/>
      <point x="334" y="662"/>
      <point x="342" y="721" type="curve"/>
      <point x="383" y="721" type="line"/>
      <point x="378" y="633"/>
      <point x="327" y="587"/>
    </contour>
    <contour>
      <point x="261" y="524" type="move" name="_top"/>
    </contour>
  </outline>
</glyph>
<glyph name="breve_tilde.uc" format="1">
  <advance width="500"/>
  <outline>
    <contour>
      <point x="247" y="759" type="curve" smooth="yes"/>
      <point x="166" y="759"/>
      <point x="116" y="803"/>
      <point x="110" y="881" type="curve"/>
      <point x="155" y="881" type="line"/>
      <point x="164" y="831"/>
      <point x="192" y="812"/>
      <point x="249" y="812" type="curve" smooth="yes"/>
      <point x="306" y="812"/>
      <point x="334" y="831"/>
      <point x="342" y="881" type="curve"/>
      <point x="384" y="881" type="line"/>
      <point x="378" y="803"/>
      <point x="329" y="759"/>
    </contour>
    <contour>
      <point x="307" y="926" type="curve" smooth="yes"/>
      <point x="355" y="926"/>
      <point x="385" y="960"/>
      <point x="401" y="1020" type="curve"/>
      <point x="363" y="1033" type="line"/>
      <point x="351" y="997"/>
      <point x="338" y="973"/>
      <point x="313" y="973" type="curve" smooth="yes"/>
      <point x="272" y="973"/>
      <point x="248" y="1032"/>
      <point x="186" y="1032" type="curve" smooth="yes"/>
      <point x="136" y="1032"/>
      <point x="108" y="1000"/>
      <point x="96" y="937" type="curve"/>
      <point x="134" y="923" type="line"/>
      <point x="143" y="963"/>
      <point x="154" y="985"/>
      <point x="181" y="985" type="curve" smooth="yes"/>
      <point x="217" y="985"/>
      <point x="241" y="926"/>
    </contour>
    <contour>
      <point x="262" y="694" type="move" name="_top"/>
    </contour>
  </outline>
</glyph>
<glyph name="carondotaccent" format="1">
  <advance width="500"/>
  <outline>
    <component base="caron"/>
    <component base="dotaccent" yOffset="142"/>
    <contour>
      <point x="245" y="497" type="move" name="_top"/>
    </contour>
  </outline>
</glyph>
<glyph name="f_f_k" format="1">
  <advance width="1290"/>
  <outline>
    <contour>
      <point x="1264" y="0" type="line"/>
      <point x="1264" y="37" type="line"/>
      <point x="1262" y="37" type="line"/>
      <point x="1227" y="37"/>
      <point x="1197" y="44"/>
      <point x="1167" y="75" type="curve" smooth="yes"/>
      <point x="954" y="299" type="line"/>
      <point x="954" y="269" type="line"/>
      <point x="1121" y="422" type="line" smooth="yes"/>
      <point x="1157" y="455"/>
      <point x="1192" y="471"/>
      <point x="1234" y="471" type="curve"/>
      <point x="1236" y="471" type="line"/>
      <point x="1236" y="508" type="line"/>
      <point x="1005" y="508" type="line"/>
      <point x="1005" y="471" type="line"/>
      <point x="1009" y="471" type="line"/>
      <point x="1040" y="471"/>
      <point x="1091" y="468"/>
      <point x="1091" y="453" type="curve"/>
      <point x="900" y="277" type="line"/>
      <point x="900" y="272" type="line"/>
      <point x="1113" y="47" type="line"/>
      <point x="1113" y="40"/>
      <point x="1069" y="37"/>
      <point x="1039" y="37" type="curve"/>
      <point x="1035" y="37" type="line"/>
      <point x="1035" y="0" type="line"/>
    </contour>
    <contour>
      <point x="36" y="508" type="line"/>
      <point x="36" y="467" type="line"/>
      <point x="418" y="467" type="line"/>
      <point x="418" y="508" type="line"/>
    </contour>
    <contour>
      <point x="368" y="508" type="line"/>
      <point x="368" y="467" type="line"/>
      <point x="686" y="467" type="line"/>
      <point x="686" y="508" type="line"/>
    </contour>
    <contour>
      <point x="720" y="0" type="line"/>
      <point x="942" y="0" type="line"/>
      <point x="942" y="37" type="line"/>
      <point x="939" y="37" type="line" smooth="yes"/>
      <point x="912" y="37"/>
      <point x="867" y="40"/>
      <point x="867" y="47" type="curve"/>
      <point x="867" y="735" type="line"/>
      <point x="745" y="735" type="line"/>
      <point x="804" y="696" type="line"/>
      <point x="804" y="45" type="line"/>
      <point x="804" y="38"/>
      <point x="759" y="35"/>
      <point x="731" y="35" type="curve" smooth="yes"/>
      <point x="720" y="35" type="line"/>
    </contour>
    <contour>
      <point x="203" y="45" type="curve"/>
      <point x="203" y="568" type="line" smooth="yes"/>
      <point x="203" y="668"/>
      <point x="242" y="697"/>
      <point x="301" y="697" type="curve" smooth="yes"/>
      <point x="332" y="697"/>
      <point x="358" y="688"/>
      <point x="378" y="680" type="curve"/>
      <point x="378" y="727" type="line"/>
      <point x="361" y="733"/>
      <point x="331" y="737"/>
      <point x="303" y="737" type="curve" smooth="yes"/>
      <point x="215" y="737"/>
      <point x="140" y="693"/>
      <point x="140" y="568" type="curve" smooth="yes"/>
      <point x="140" y="71" type="line"/>
      <point x="140" y="42"/>
      <point x="107" y="35"/>
      <point x="52" y="35" type="curve" smooth="yes"/>
      <point x="41" y="35" type="line"/>
      <point x="41" y="0" type="line"/>
      <point x="300" y="0" type="line"/>
      <point x="300" y="35" type="line"/>
      <point x="291" y="35" type="line" smooth="yes"/>
      <point x="241" y="35"/>
      <point x="203" y="38"/>
    </contour>
    <contour>
      <point x="535" y="45" type="curve"/>
      <point x="535" y="584" type="line" smooth="yes"/>
      <point x="535" y="685"/>
      <point x="583" y="710"/>
      <point x="667" y="710" type="curve" smooth="yes"/>
      <point x="729" y="710"/>
      <point x="782" y="694"/>
      <point x="828" y="650" type="curve"/>
      <point x="833" y="705" type="line"/>
      <point x="796" y="729"/>
      <point x="741" y="752"/>
      <point x="668" y="752" type="curve" smooth="yes"/>
      <point x="557" y="752"/>
      <point x="472" y="709"/>
      <point x="472" y="584" type="curve"/>
      <point x="472" y="45" type="line"/>
      <point x="472" y="38"/>
      <point x="434" y="35"/>
      <point x="381" y="35" type="curve" smooth="yes"/>
      <point x="373" y="35" type="line"/>
      <point x="373" y="0" type="line"/>
      <point x="638" y="0" type="line"/>
      <point x="638" y="35" type="line"/>
      <point x="625" y="35" type="line" smooth="yes"/>
      <point x="574" y="35"/>
      <point x="535" y="38"/>
    </contour>
  </outline>
</glyph>
<glyph name="four.den" format="1">
  <advance width="325"/>
  <outline>
    <contour>
      <point x="22" y="87" type="line"/>
      <point x="309" y="87" type="line"/>
      <point x="309" y="129" type="line"/>
      <point x="48" y="129" type="line"/>
      <point x="43" y="102" type="line"/>
      <point x="203" y="313" type="line"/>
      <point x="218" y="341" type="line"/>
      <point x="181" y="341" type="line"/>
      <point x="22" y="132" type="line"/>
    </contour>
    <contour>
      <point x="248" y="0" type="line"/>
      <point x="248" y="341" type="line"/>
      <point x="201" y="341" type="line"/>
      <point x="194" y="323" type="line"/>
      <point x="194" y="0" type="line"/>
    </contour>
  </outline>
</glyph>
<glyph name="franc.proportional" format="1">
  <advance width="589"/>
  <outline>
    <contour>
      <point x="199" y="397" type="line"/>
      <point x="199" y="360" type="line"/>
      <point x="469" y="355" type="line"/>
      <point x="469" y="403" type="line"/>
    </contour>
    <contour>
      <point x="224" y="667" type="line"/>
      <point x="377" y="667" type="line" smooth="yes"/>
      <point x="463" y="667"/>
      <point x="498" y="660"/>
      <point x="502" y="624" type="curve" smooth="yes"/>
      <point x="511" y="537" type="line"/>
      <point x="551" y="537" type="line"/>
      <point x="551" y="710" type="line"/>
      <point x="63" y="710" type="line"/>
      <point x="63" y="672" type="line"/>
      <point x="74" y="672" type="line" smooth="yes"/>
      <point x="123" y="672"/>
      <point x="159" y="665"/>
      <point x="159" y="636" type="curve" smooth="yes"/>
      <point x="159" y="74" type="line" smooth="yes"/>
      <point x="159" y="45"/>
      <point x="123" y="38"/>
      <point x="74" y="38" type="curve" smooth="yes"/>
      <point x="63" y="38" type="line"/>
      <point x="63" y="0" type="line"/>
      <point x="336" y="0" type="line"/>
      <point x="336" y="38" type="line"/>
      <point x="319" y="38" type="line" smooth="yes"/>
      <point x="276" y="38"/>
      <point x="224" y="39"/>
      <point x="224" y="74" type="curve" smooth="yes"/>
    </contour>
    <contour>
      <point x="63" y="224" type="line"/>
      <point x="63" y="184" type="line"/>
      <point x="380" y="184" type="line"/>
      <point x="380" y="224" type="line"/>
    </contour>
  </outline>
</glyph>
<glyph name="g.alt" format="1">
  <advance width="590"/>
  <outline>
    <contour>
      <point x="449" y="42" type="line"/>
      <point x="449" y="-113"/>
      <point x="380" y="-179"/>
      <point x="270" y="-179" type="curve" smooth="yes"/>
      <point x="186" y="-179"/>
      <point x="128" y="-148"/>
      <point x="95" y="-98" type="curve"/>
      <point x="92" y="-146"/>
      <point x="109" y="-163"/>
      <point x="128" y="-164" type="curve"/>
      <point x="128" y="-60" type="line"/>
      <point x="59" y="-60" type="line"/>
      <point x="59" y="-140" type="line"/>
      <point x="90" y="-185"/>
      <point x="177" y="-222"/>
      <point x="270" y="-222" type="curve" smooth="yes"/>
      <point x="419" y="-222"/>
      <point x="512" y="-128"/>
      <point x="512" y="43" type="curve"/>
      <point x="512" y="511" type="line"/>
      <point x="469" y="511" type="line"/>
      <point x="455" y="390" type="line"/>
      <point x="449" y="375" type="line"/>
    </contour>
    <contour>
      <point x="112" y="250" type="curve" smooth="yes"/>
      <point x="112" y="385"/>
      <point x="172" y="475"/>
      <point x="280" y="475" type="curve" smooth="yes"/>
      <point x="364" y="475"/>
      <point x="422" y="419"/>
      <point x="463" y="319" type="curve"/>
      <point x="492" y="341" type="line"/>
      <point x="437" y="460"/>
      <point x="381" y="518"/>
      <point x="277" y="518" type="curve" smooth="yes"/>
      <point x="139" y="518"/>
      <point x="45" y="408"/>
      <point x="45" y="250" type="curve" smooth="yes"/>
      <point x="45" y="93"/>
      <point x="132" y="-11"/>
      <point x="266" y="-11" type="curve" smooth="yes"/>
      <point x="372" y="-11"/>
      <point x="429" y="54"/>
      <point x="496" y="173" type="curve"/>
      <point x="469" y="197" type="line"/>
      <point x="419" y="96"/>
      <point x="357" y="32"/>
      <point x="272" y="32" type="curve" smooth="yes"/>
      <point x="167" y="32"/>
      <point x="112" y="117"/>
    </contour>
  </outline>
</glyph>
<glyph name="hungarumlautcomb" format="1">
  <outline>
    <contour>
      <point x="-391" y="705" type="curve" smooth="yes"/>
      <point x="-408" y="590" type="line"/>
      <point x="-408" y="571" type="line"/>
      <point x="-385" y="571" type="line"/>
      <point x="-334" y="673" type="line" smooth="yes"/>
      <point x="-323" y="693"/>
      <point x="-317" y="708"/>
      <point x="-317" y="724" type="curve" smooth="yes"/>
      <point x="-317" y="744"/>
      <point x="-331" y="756"/>
      <point x="-350" y="756" type="curve" smooth="yes"/>
      <point x="-374" y="756"/>
      <point x="-386" y="740"/>
    </contour>
    <contour>
      <point x="-250" y="705" type="curve" smooth="yes"/>
      <point x="-268" y="590" type="line"/>
      <point x="-268" y="571" type="line"/>
      <point x="-245" y="571" type="line"/>
      <point x="-193" y="673" type="line" smooth="yes"/>
      <point x="-183" y="693"/>
      <point x="-176" y="708"/>
      <point x="-176" y="724" type="curve" smooth="yes"/>
      <point x="-176" y="744"/>
      <point x="-190" y="756"/>
      <point x="-209" y="756" type="curve" smooth="yes"/>
      <point x="-233" y="756"/>
      <point x="-245" y="740"/>
    </contour>
    <contour>
      <point x="-154" y="525" type="move" name="_top"/>
    </contour>
  </outline>
</glyph>
<glyph name="liraTurkish" format="1">
  <advance width="561"/>
  <outline>
    <contour>
      <point x="36" y="394" type="line"/>
      <point x="36" y="354" type="line"/>
      <point x="429" y="530" type="line"/>
      <point x="429" y="570" type="line"/>
    </contour>
    <contour>
      <point x="36" y="229" type="line"/>
      <point x="36" y="189" type="line"/>
      <point x="429" y="365" type="line"/>
      <point x="429" y="405" type="line"/>
    </contour>
    <contour>
      <point x="269" y="43" type="curve" smooth="yes"/>
      <point x="196" y="43" type="line"/>
      <point x="196" y="636" type="line" smooth="yes"/>
      <point x="196" y="665"/>
      <point x="232" y="672"/>
      <point x="283" y="672" type="curve" smooth="yes"/>
      <point x="294" y="672" type="line"/>
      <point x="294" y="710" type="line"/>
      <point x="36" y="710" type="line"/>
      <point x="36" y="672" type="line"/>
      <point x="46" y="672" type="line" smooth="yes"/>
      <point x="95" y="672"/>
      <point x="131" y="665"/>
      <point x="131" y="636" type="curve" smooth="yes"/>
      <point x="131" y="74" type="line" smooth="yes"/>
      <point x="131" y="45"/>
      <point x="95" y="38"/>
      <point x="46" y="38" type="curve" smooth="yes"/>
      <point x="36" y="38" type="line"/>
      <point x="36" y="0" type="line"/>
      <point x="260" y="0" type="line" smooth="yes"/>
      <point x="438" y="0"/>
      <point x="531" y="99"/>
      <point x="540" y="272" type="curve"/>
      <point x="484" y="289" type="line"/>
      <point x="480" y="130"/>
      <point x="412" y="43"/>
    </contour>
  </outline>
</glyph>
<glyph name="macron_acute.uc" format="1">
  <advance width="542"/>
  <outline>
    <component base="macron.uc" xOffset="21"/>
    <component base="acute.uc" xOffset="51" yOffset="121"/>
    <contour>
      <point x="271" y="694" type="move" name="_top"/>
    </contour>
  </outline>
</glyph>
<glyph name="manat.proportional" format="1">
  <advance width="641"/>
  <outline>
    <contour>
      <point x="297" y="720" type="line"/>
      <point x="297" y="148" type="line"/>
      <point x="344" y="148" type="line"/>
      <point x="344" y="720" type="line"/>
    </contour>
    <contour>
      <point x="320" y="550" type="curve" smooth="yes"/>
      <point x="461" y="550"/>
      <point x="529" y="373"/>
      <point x="529" y="0" type="curve"/>
      <point x="598" y="0" type="line"/>
      <point x="598" y="366"/>
      <point x="496" y="590"/>
      <point x="320" y="590" type="curve" smooth="yes"/>
      <point x="145" y="590"/>
      <point x="43" y="366"/>
      <point x="43" y="0" type="curve"/>
      <point x="112" y="0" type="line"/>
      <point x="112" y="373"/>
      <point x="179" y="550"/>
    </contour>
  </outline>
</glyph>
<glyph name="nine.old" format="1">
  <advance width="560"/>
  <outline>
    <contour>
      <point x="91" y="-108" type="line"/>
      <point x="312" y="-95"/>
      <point x="450" y="43"/>
      <point x="450" y="262" type="curve" smooth="yes"/>
      <point x="450" y="435"/>
      <point x="378" y="514"/>
      <point x="272" y="514" type="curve" smooth="yes"/>
      <point x="167" y="514"/>
      <point x="106" y="438"/>
      <point x="106" y="332" type="curve" smooth="yes"/>
      <point x="106" y="234"/>
      <point x="160" y="163"/>
      <point x="259" y="163" type="curve" smooth="yes"/>
      <point x="354" y="163"/>
      <point x="424" y="235"/>
      <point x="463" y="322" type="curve"/>
      <point x="475" y="285" type="line"/>
      <point x="443" y="202"/>
      <point x="360" y="119"/>
      <point x="252" y="119" type="curve" smooth="yes"/>
      <point x="127" y="119"/>
      <point x="38" y="204"/>
      <point x="38" y="332" type="curve" smooth="yes"/>
      <point x="38" y="460"/>
      <point x="136" y="558"/>
      <point x="272" y="558" type="curve" smooth="yes"/>
      <point x="411" y="558"/>
      <point x="516" y="455"/>
      <point x="516" y="263" type="curve" smooth="yes"/>
      <point x="516" y="32"/>
      <point x="354" y="-136"/>
      <point x="98" y="-152" type="curve"/>
    </contour>
  </outline>
</glyph>
<glyph name="one.old" format="1">
  <advance width="560"/>
  <outline>
    <contour>
      <point x="347" y="72" type="curve" smooth="yes"/>
      <point x="347" y="548" type="line"/>
      <point x="304" y="548" type="line"/>
      <point x="269" y="496"/>
      <point x="198" y="474"/>
      <point x="104" y="472" type="curve"/>
      <point x="104" y="428" type="line"/>
      <point x="191" y="426"/>
      <point x="275" y="454"/>
      <point x="294" y="500" type="curve"/>
      <point x="299" y="513"/>
      <point x="296" y="517"/>
      <point x="282" y="495" type="curve"/>
      <point x="282" y="72" type="line" smooth="yes"/>
      <point x="282" y="43"/>
      <point x="242" y="36"/>
      <point x="177" y="36" type="curve" smooth="yes"/>
      <point x="118" y="36" type="line"/>
      <point x="118" y="0" type="line"/>
      <point x="507" y="0" type="line"/>
      <point x="507" y="36" type="line"/>
      <point x="462" y="36" type="line" smooth="yes"/>
      <point x="391" y="36"/>
      <point x="347" y="43"/>
    </contour>
  </outline>
</glyph>
<glyph name="rupeeIndian.proportional" format="1">
  <advance width="613"/>
  <outline>
    <contour>
      <point x="74" y="514" type="line"/>
      <point x="74" y="473" type="line"/>
      <point x="570" y="473" type="line"/>
      <point x="570" y="514" type="line"/>
    </contour>
    <contour>
      <point x="124" y="278" type="line"/>
      <point x="160" y="278" type="line" smooth="yes"/>
      <point x="335" y="278"/>
      <point x="438" y="366"/>
      <point x="438" y="497" type="curve" smooth="yes"/>
      <point x="438" y="590"/>
      <point x="380" y="660"/>
      <point x="256" y="680" type="curve"/>
      <point x="230" y="694"/>
      <point x="181" y="704"/>
      <point x="220" y="670" type="curve"/>
      <point x="570" y="670" type="line"/>
      <point x="570" y="710" type="line"/>
      <point x="74" y="710" type="line"/>
      <point x="74" y="665" type="line"/>
      <point x="176" y="665" type="line" smooth="yes"/>
      <point x="304" y="665"/>
      <point x="368" y="601"/>
      <point x="368" y="497" type="curve" smooth="yes"/>
      <point x="368" y="389"/>
      <point x="308" y="318"/>
      <point x="151" y="318" type="curve" smooth="yes"/>
      <point x="74" y="318" type="line"/>
      <point x="74" y="284" type="line"/>
      <point x="383" y="0" type="line"/>
      <point x="494" y="0" type="line"/>
      <point x="494" y="38" type="line"/>
      <point x="481" y="38" type="line" smooth="yes"/>
      <point x="444" y="38"/>
      <point x="423" y="46"/>
      <point x="399" y="66" type="curve" smooth="yes"/>
      <point x="128" y="306" type="line"/>
    </contour>
  </outline>
</glyph>
<glyph name="seven.lin" format="1">
  <advance width="560"/>
  <outline>
    <contour>
      <point x="235" y="654" type="line" smooth="yes"/>
      <point x="149" y="654"/>
      <point x="114" y="647"/>
      <point x="110" y="611" type="curve" smooth="yes"/>
      <point x="101" y="521" type="line"/>
      <point x="62" y="521" type="line"/>
      <point x="62" y="710" type="line"/>
      <point x="528" y="710" type="line"/>
      <point x="528" y="655" type="line"/>
      <point x="408" y="486"/>
      <point x="297" y="324"/>
      <point x="270" y="0" type="curve"/>
      <point x="201" y="0" type="line"/>
      <point x="231" y="326"/>
      <point x="404" y="558"/>
      <point x="491" y="667" type="curve"/>
      <point x="500" y="654" type="line"/>
    </contour>
  </outline>
</glyph>
<glyph name="tilde_dieresis" format="1">
  <advance width="505"/>
  <outline>
    <component base="tilde" xOffset="3"/>
    <component base="dieresis" xOffset="-1" yOffset="147"/>
    <contour>
      <point x="253" y="526" type="move" name="_top"/>
    </contour>
  </outline>
</glyph>
